<svg data-name="レイヤー 1" xmlns="http://www.w3.org/2000/svg" viewBox="0 0 240 240"><defs><linearGradient x1="0%" x2="0%" y1="0%" y2="100%" id="a"><stop offset="0%" stop-color="#3590f9"/><stop offset="100%" stop-color="#116bd4"/></linearGradient></defs><path fill="url(#a)" d="M106.818 35.983H80.2a35.141 35.141 0 0 0-14.076 2.836 36.458 36.458 0 0 0-19.277 19.417 35.813 35.813 0 0 0-2.816 14.174v99.313a35.191 35.191 0 0 0 2.816 14.089 36.938 36.938 0 0 0 7.763 11.512 36.368 36.368 0 0 0 11.516 7.818 35.107 35.107 0 0 0 14.074 2.835h26.616a2.994 2.994 0 0 0 2.218-.86 3.043 3.043 0 0 0 .853-2.233V39.076a3.044 3.044 0 0 0-.853-2.233 3 3 0 0 0-2.216-.86zM66.211 67.771a15.166 15.166 0 0 1 21.5 0 15.425 15.425 0 0 1 0 21.649 15.164 15.164 0 0 1-21.5 0 15.425 15.425 0 0 1 0-21.649zm17.4 52.406a6.721 6.721 0 0 1-1.938 4.9 6.822 6.822 0 0 1-9.6 0 7.155 7.155 0 0 1 0-9.793 6.819 6.819 0 0 1 9.6 0 6.726 6.726 0 0 1 1.941 4.893zm-19.791 20.1a6.57 6.57 0 0 1-4.86-1.977 7.092 7.092 0 0 1 0-9.794 6.971 6.971 0 0 1 9.725 0 7.092 7.092 0 0 1 0 9.794 6.579 6.579 0 0 1-4.862 1.979zm17.853 11.082a6.819 6.819 0 0 1-9.6 0 7.155 7.155 0 0 1 0-9.793 6.822 6.822 0 0 1 9.6 0 7.155 7.155 0 0 1 0 9.793zM94.619 138.3a6.975 6.975 0 0 1-9.726 0 7.095 7.095 0 0 1 0-9.794 6.972 6.972 0 0 1 9.726 0 7.092 7.092 0 0 1 0 9.794zm102.539-80.064a36.458 36.458 0 0 0-19.279-19.417 35.162 35.162 0 0 0-14.079-2.836h-26.613a2.988 2.988 0 0 0-2.218.86 3.028 3.028 0 0 0-.853 2.233v165.808a3.027 3.027 0 0 0 .853 2.233 2.984 2.984 0 0 0 2.218.86H163.8a35.127 35.127 0 0 0 14.076-2.835 36.435 36.435 0 0 0 11.516-7.818 36.989 36.989 0 0 0 7.763-11.512 35.19 35.19 0 0 0 2.815-14.089V72.41a35.812 35.812 0 0 0-2.812-14.174zm-35 6.7a6.818 6.818 0 0 1 9.6 0 7.152 7.152 0 0 1 0 9.793 6.823 6.823 0 0 1-9.6 0 7.155 7.155 0 0 1 0-9.793zM173.7 96.121a6.725 6.725 0 0 1-1.939 4.9 6.823 6.823 0 0 1-9.6 0 6.712 6.712 0 0 1-1.938-4.9 7.008 7.008 0 0 1 1.938-4.982 6.62 6.62 0 0 1 9.6 0 7.022 7.022 0 0 1 1.939 4.982zm-26.446-13.23a6.669 6.669 0 0 1 1.963-4.9 6.968 6.968 0 0 1 9.725 0 7.094 7.094 0 0 1 0 9.793 6.971 6.971 0 0 1-9.725 0 6.66 6.66 0 0 1-1.964-4.893zm30.54 65.55a15.375 15.375 0 0 1-21.5 0 14.507 14.507 0 0 1-4.434-10.741 14.8 14.8 0 0 1 4.435-10.825 15.166 15.166 0 0 1 21.5 0 14.8 14.8 0 0 1 4.436 10.825 14.512 14.512 0 0 1-4.438 10.741zm7.081-60.653a6.971 6.971 0 0 1-9.725 0 7.091 7.091 0 0 1 0-9.793 6.968 6.968 0 0 1 9.725 0 7.091 7.091 0 0 1 0 9.793z"/></svg>