<svg xmlns="http://www.w3.org/2000/svg" width="240" height="240" viewBox="0 0 240 240"><defs><linearGradient x1="0%" x2="0%" y1="0%" y2="100%" id="a"><stop offset="0%" stop-color="#fa2634"/><stop offset="100%" stop-color="#d7010f"/></linearGradient></defs><path class="a" fill="url(#a)" d="M59.619 194.638v-37H31.644a96.309 96.309 0 0 0 27.975 37zm-35.641-74.643a96.347 96.347 0 0 0 1.858 18.819h33.783V45.358a95.82 95.82 0 0 0-35.641 74.637zM120 23.978a97.226 97.226 0 0 0-11.76.744v114.092h105.924A96.038 96.038 0 0 0 120 23.978zm-11.76 191.3l11.76.743a96.06 96.06 0 0 0 88.362-58.386H108.237z"/></svg>