<svg data-name="レイヤー 1" xmlns="http://www.w3.org/2000/svg" viewBox="0 0 240 240"><defs><linearGradient x1="0%" x2="0%" y1="0%" y2="100%" id="a"><stop offset="0%" stop-color="#ffb32f"/><stop offset="100%" stop-color="#da8d0a"/></linearGradient></defs><path fill="url(#a)" d="M164.8 95.52h51.132a10.995 10.995 0 0 0 0-21.987H164.8a10.995 10.995 0 0 0 0 21.987zM94.434 65.969h51.132a10.994 10.994 0 0 0 0-21.986H94.434a10.994 10.994 0 0 0 0 21.986zm127.026 48.107H18.537c-6.537 0-6.537 7.057-6.537 11.71a13.4 13.4 0 0 0 1.109 5.082l.1.541.4.713c.109.178.214.368.323.538l55.918 61.146 15.312-24.369 37.6 46.575 31.646-43.369 10.486 14.169 20.266-34.419 11.44 19.829 30.966-43.039a13.2 13.2 0 0 0 .444-3.4c-.005-4.65-.005-11.707-6.55-11.707zM24.064 95.52H75.2a10.995 10.995 0 0 0 0-21.987H24.064a10.995 10.995 0 0 0 0 21.987z"/></svg>