<svg data-name="レイヤー 1" xmlns="http://www.w3.org/2000/svg" viewBox="0 0 240 240"><defs><linearGradient x1="0%" x2="0%" y1="0%" y2="100%" id="a"><stop offset="0%" stop-color="#ebeb02"/><stop offset="100%" stop-color="#c7c700"/></linearGradient></defs><path fill="url(#a)" d="M189.28 169.511l-30.693-11.245-8.008-11.966-73.268-26.845-13.773 3.982-30.692-11.244L66.72 18.5l30.691 11.247 8.01 11.963 73.266 26.846 13.775-3.983 30.692 11.247zM135.562 48.239c.482-1.321 2.411-6.627 2.9-7.968l15.841 5.8c-.487 1.343-2.4 6.654-2.87 7.979zm-12.413 92.526c-8.543 25.956-18.045 51.749-32.273 80.734a76.4 76.4 0 0 0-15.843-5.805c7.607-31.41 16.8-57.317 26.827-82.729z" fill-rule="evenodd"/></svg>