<svg data-name="レイヤー 1" xmlns="http://www.w3.org/2000/svg" viewBox="0 0 400 400"><path d="M344 400H55.931A55.9 55.9 0 0 1 0 344.132V55.981A56.014 56.014 0 0 1 56.035 0H344a55.979 55.979 0 0 1 56 55.948V344.04A55.981 55.981 0 0 1 344 400z" fill="#fff"/><path d="M316.7 165.325l44.622 5.886a2.358 2.358 0 0 0 2.667-2.023 165.3 165.3 0 0 0 .092-37.531 2.448 2.448 0 0 0-2.759-2.137l-44.622 5.748a2.533 2.533 0 0 0-2.046 2.759 114.457 114.457 0 0 1 0 24.631 2.426 2.426 0 0 0 2.046 2.667" fill="#f5aa00"/><path d="M294.25 219.42l35.643 27.38a2.429 2.429 0 0 0 3.46-.39 167.269 167.269 0 0 0 18.737-32.5 2.341 2.341 0 0 0-1.333-3.082L309.191 193.5a2.365 2.365 0 0 0-3.091 1.311 110.822 110.822 0 0 1-12.345 21.265 2.341 2.341 0 0 0 .5 3.345" fill="#e62d8c"/><path d="M309.191 107.139l41.566-17.09a2.588 2.588 0 0 0 1.333-3.313 163.859 163.859 0 0 0-18.7-32.321 2.48 2.48 0 0 0-3.437-.551l-35.7 27.357a2.386 2.386 0 0 0-.5 3.31 106.292 106.292 0 0 1 12.253 21.483 2.439 2.439 0 0 0 3.183 1.125" fill="#009682"/><path d="M105.727 81.221L70.15 53.864a2.468 2.468 0 0 0-3.426.551 159.544 159.544 0 0 0-18.8 32.321 2.463 2.463 0 0 0 1.323 3.254l41.472 17.288a2.62 2.62 0 0 0 3.171-1.264 110.068 110.068 0 0 1 12.368-21.323 2.563 2.563 0 0 0-.527-3.47" fill="#e6001e"/><path d="M83.278 135.44l-44.553-5.92a2.4 2.4 0 0 0-2.714 2.137 156.305 156.305 0 0 0-.045 37.508 2.445 2.445 0 0 0 2.759 2.046l44.553-5.794a2.348 2.348 0 0 0 2.07-2.712 116.194 116.194 0 0 1 0-24.678 2.3 2.3 0 0 0-2.07-2.587" fill="#a5c80f"/><path d="M90.818 193.546L49.243 210.7a2.45 2.45 0 0 0-1.323 3.218 166.4 166.4 0 0 0 18.68 32.5 2.394 2.394 0 0 0 3.437.39l35.69-27.38a2.334 2.334 0 0 0 .527-3.3 109.177 109.177 0 0 1-12.229-21.277 2.38 2.38 0 0 0-3.207-1.3" fill="#009beb"/><path d="M196.246 80.336c-41.6 0-71.783 32.022-71.783 70.38 0 44.438 31.105 69.773 67.381 69.773 7.425 0 17.082-1.069 22.689-3.588a3.24 3.24 0 0 0 2.116-3.171v-33.425a2.386 2.386 0 0 0-3.1-2.289 54.576 54.576 0 0 1-16.679 2.289c-13.3 0-28.473-9.417-28.473-30.693 0-16.782 13.079-29.231 28.4-29.231 19.094 0 30.806 13.484 30.806 31.128V214.7a2.417 2.417 0 0 0 2.38 2.484h39.071a2.464 2.464 0 0 0 2.436-2.484v-65.121c0-41.611-29.68-69.243-75.244-69.243zM63.977 290.478c-16.942 0-29.068 12.99-29.068 28.438 0 18.034 12.528 28.242 27.241 28.242 3.035 0 6.931-.391 9.266-1.38a1.364 1.364 0 0 0 .826-1.332v-13.564a1.079 1.079 0 0 0-1.379-.9 18.552 18.552 0 0 1-6.735.955c-5.276 0-11.46-3.747-11.46-12.472a11.476 11.476 0 0 1 11.46-11.69c7.712 0 12.516 5.346 12.516 12.517v25.542a.983.983 0 0 0 .989.988h15.841a.934.934 0 0 0 .93-.988v-26.366c0-16.817-11.966-27.99-30.427-27.99m141.017 1.3h-15.805a1.034 1.034 0 0 0-1 1.045v52.014a.985.985 0 0 0 1 .988h15.805a.955.955 0 0 0 .965-.988v-52.014a1 1 0 0 0-.965-1.045m-7.921-25.128a10.138 10.138 0 1 0 10.127 10.184 9.932 9.932 0 0 0-10.127-10.184m27.128 0a10.138 10.138 0 1 0 10.128 10.184A9.979 9.979 0 0 0 224.2 266.65m7.943 25.128H216.3a1.012 1.012 0 0 0-.965 1.045v52.014a.963.963 0 0 0 .965.988h15.841a1.007 1.007 0 0 0 .965-.988v-52.014a1.061 1.061 0 0 0-.965-1.045m104.279-1.3c-15.657 0-28.748 12.691-28.748 28.325 0 15.666 13.173 28.355 28.748 28.355 15.528 0 28.76-12.964 28.76-28.355 0-15.335-13.185-28.325-28.76-28.325m0 40.4a12.053 12.053 0 1 1 11.945-12.078 11.83 11.83 0 0 1-11.942 12.079m-179.765-40.4a20.653 20.653 0 0 0-15.735 7.312 21.3 21.3 0 0 0-15.933-7.312c-12.368 0-22.126 7.863-22.126 20.829v33.53a.934.934 0 0 0 .93.988h15.921a.908.908 0 0 0 .9-.988v-31.749a5.41 5.41 0 0 1 5.678-5.506 5.321 5.321 0 0 1 5.621 5.506v31.748a1.054 1.054 0 0 0 1.069.988h15.714a.975.975 0 0 0 .988-.988v-31.748c0-3.437 2.585-5.506 5.782-5.506a5.356 5.356 0 0 1 5.619 5.506v31.748a.983.983 0 0 0 .989.988h15.817a1.073 1.073 0 0 0 1-.988v-33.53c0-12.966-9.817-20.829-22.232-20.829m117.073 0a24.653 24.653 0 0 0-7.989 1.415 1.159 1.159 0 0 0-.886 1.208v13.724a.941.941 0 0 0 1.288.9 22.269 22.269 0 0 1 6.335-.942c7.276 0 11.907 5.346 11.907 12.025 0 6.838-4.861 12.356-12.126 12.079a12.046 12.046 0 0 1-11.853-12.087V269a.992.992 0 0 0-1-.989H243.6a1.034 1.034 0 0 0-1.013.989v49.37c0 16.93 11.575 28.793 30.048 28.793 16.1 0 29.53-12.689 29.53-28.414 0-15.829-10.829-28.266-28.438-28.266" fill="#231815"/></svg>