<svg xmlns="http://www.w3.org/2000/svg" width="408" height="360" viewBox="0 0 408 360"><pattern id="diagonal-texture" patternUnits="userSpaceOnUse" width="6" height="6"><style>.diagonal-1{fill:#242424}</style><path d="M0 0h6v6H0z"/><path class="diagonal-1" d="M5 0h1v1H5zM4 1h1v1H4zM3 2h1v1H3zM2 3h1v1H2zM1 4h1v1H1zM0 5h1v1H0zM4.5.5H5V1h-.5zM5 1h.5v.5H5zM4 2h.5v.5H4zm-.5-.5H4V2h-.5zm-1 1H3V3h-.5zM3 3h.5v.5H3zM2 4h.5v.5H2zM1 5h.5v.5H1zM0 0h.5v.5H0z"/>/&gt;<path class="diagonal-1" d="M5.5 5.5H6V6h-.5zm-4-2H2V4h-.5zm-1 1H1V5H.5z"/></pattern><g fill="url(#diagonal-texture)"><path d="M0 302.007h399.991l-32.919 58H0z" fill-rule="evenodd"/><path d="M364.6 302.007h35.388l-32.919 58h-36.208z" fill="#666" fill-rule="evenodd"/><path d="M46.37 87.6a31.241 31.241 0 0 0 10.549 5.667 40.019 40.019 0 0 0 11.926 1.825 39.169 39.169 0 0 0 12.127-1.769 26.837 26.837 0 0 0 9.328-5.168 22.852 22.852 0 0 0 6-8.351 28.314 28.314 0 0 0 2.063-11.13 31.526 31.526 0 0 0-1.618-10.444 24.9 24.9 0 0 0-5.045-8.439 34.661 34.661 0 0 0-8.254-6.57 66.842 66.842 0 0 0-11.222-5.133 64.49 64.49 0 0 1-5.419-2.584 22.312 22.312 0 0 1-3.985-2.677 10.189 10.189 0 0 1-2.364-2.884 6.564 6.564 0 0 1-.787-3.238 11.164 11.164 0 0 1 .554-3.575 7.354 7.354 0 0 1 1.527-2.709 6.97 6.97 0 0 1 2.572-1.769 11.176 11.176 0 0 1 7.927.125 7.091 7.091 0 0 1 2.665 2.143 10.011 10.011 0 0 1 1.6 3.481 20.928 20.928 0 0 1 .534 4.827v1.594h21.4v-1.595a31.807 31.807 0 0 0-2.1-11.733A26.706 26.706 0 0 0 90.3 8.221a27.824 27.824 0 0 0-9.467-6.066C73.616-.686 63.809-.673 56.4 1.88a29.348 29.348 0 0 0-9.574 5.368 24.061 24.061 0 0 0-6.35 8.451 26.1 26.1 0 0 0-2.257 10.886 25.2 25.2 0 0 0 2.238 10.9 27.745 27.745 0 0 0 5.923 8.221 37.944 37.944 0 0 0 8.481 6.06 81.041 81.041 0 0 0 9.857 4.441 49.936 49.936 0 0 1 6.627 3.144 14.176 14.176 0 0 1 3.57 2.834A6.514 6.514 0 0 1 76.408 65a15.946 15.946 0 0 1 .384 3.8 14.143 14.143 0 0 1-.415 3.556 6.422 6.422 0 0 1-1.345 2.571 6.164 6.164 0 0 1-2.357 1.65c-2.377 1-6.4.784-8.971-.05a7.778 7.778 0 0 1-3.382-2.08 9.347 9.347 0 0 1-2.068-3.93 24.149 24.149 0 0 1-.748-6.451v-1.594H35.979v1.594a31.418 31.418 0 0 0 2.859 13.844 28.621 28.621 0 0 0 7.532 9.69zm65.049.226a26.085 26.085 0 0 0 10.027 5.542 43.3 43.3 0 0 0 12.542 1.726 42.415 42.415 0 0 0 12.378-1.726 26.129 26.129 0 0 0 10-5.536 25.434 25.434 0 0 0 6.564-9.66 37.764 37.764 0 0 0 2.314-13.919V1.207H143.8v63.046a26.47 26.47 0 0 1-.7 6.783 8.756 8.756 0 0 1-1.8 3.668 5.659 5.659 0 0 1-2.811 1.681 19.282 19.282 0 0 1-9 0 5.791 5.791 0 0 1-2.835-1.694 8.6 8.6 0 0 1-1.836-3.656 27.244 27.244 0 0 1-.691-6.783V1.207h-21.585v63.046a37.762 37.762 0 0 0 2.314 13.919 25.361 25.361 0 0 0 6.563 9.654zM192.227 62.4h10.914a37.51 37.51 0 0 0 12.844-2.093 27.451 27.451 0 0 0 9.807-6.041 26.266 26.266 0 0 0 6.174-9.516 34.252 34.252 0 0 0 2.134-12.328 35.474 35.474 0 0 0-2.124-12.375 28.731 28.731 0 0 0-6.136-9.953 28 28 0 0 0-9.769-6.551 34.057 34.057 0 0 0-12.925-2.337h-32.38v92.66h21.461zm0-42.948h10.914a7.9 7.9 0 0 1 4.1 1 8.864 8.864 0 0 1 2.9 2.753 13.262 13.262 0 0 1 1.734 4.167 22.827 22.827 0 0 1 .573 5.169 19.857 19.857 0 0 1-.566 4.92 10.156 10.156 0 0 1-1.672 3.612 7.574 7.574 0 0 1-2.829 2.255 9.946 9.946 0 0 1-4.237.828h-10.917zm101.909 56.235h-33.608V55.153h28.4V37.4h-28.4V19.455h33.494V1.207h-54.957v92.66h55.07zM320.1 61.176h6.368l13.579 32.691h22.285v-2.454l-15.389-35.96a27.367 27.367 0 0 0 4.527-3.439 23.516 23.516 0 0 0 4.419-5.7 27.151 27.151 0 0 0 2.767-7.362 40.574 40.574 0 0 0 .949-9.111 34.072 34.072 0 0 0-2.055-12.251 24.1 24.1 0 0 0-6.05-9.04 25.853 25.853 0 0 0-9.587-5.505 40 40 0 0 0-12.567-1.838h-30.7v92.66H320.1zm0-41.721h9.24a9.244 9.244 0 0 1 4.012.791 6.94 6.94 0 0 1 2.652 2.2 10.409 10.409 0 0 1 1.6 3.668 22.966 22.966 0 0 1 .547 5.2c0 3.637-.811 6.552-2.4 8.663-1.522 1.992-3.785 2.958-6.915 2.958H320.1zM46.37 192.047a31.306 31.306 0 0 0 10.549 5.673 39.937 39.937 0 0 0 11.926 1.832 39.181 39.181 0 0 0 12.121-1.776A26.477 26.477 0 0 0 90.3 192.6a22.739 22.739 0 0 0 6-8.346 28.22 28.22 0 0 0 2.063-11.124 31.551 31.551 0 0 0-1.622-10.45 24.76 24.76 0 0 0-5.055-8.44 34.7 34.7 0 0 0-8.248-6.57 67.158 67.158 0 0 0-11.228-5.144c-2-.841-3.771-1.682-5.413-2.573a21.773 21.773 0 0 1-3.991-2.69 10.1 10.1 0 0 1-2.357-2.878 6.488 6.488 0 0 1-.787-3.232 10.924 10.924 0 0 1 .554-3.569 7.342 7.342 0 0 1 1.527-2.709 6.9 6.9 0 0 1 2.578-1.776 10.9 10.9 0 0 1 7.922.125 7.177 7.177 0 0 1 2.665 2.136 10.184 10.184 0 0 1 1.6 3.493 20.774 20.774 0 0 1 .534 4.814v1.594h21.4v-1.594a31.729 31.729 0 0 0-2.1-11.727 26.567 26.567 0 0 0-6.042-9.268 27.692 27.692 0 0 0-9.474-6.071c-7.268-2.847-17-2.84-24.43-.274a29.5 29.5 0 0 0-9.574 5.369 24.094 24.094 0 0 0-6.35 8.451 26.045 26.045 0 0 0-2.257 10.88 25.271 25.271 0 0 0 2.238 10.918 27.608 27.608 0 0 0 5.923 8.2 37.641 37.641 0 0 0 8.481 6.079 84.324 84.324 0 0 0 9.857 4.428 50.075 50.075 0 0 1 6.627 3.144 14.21 14.21 0 0 1 3.57 2.828 6.521 6.521 0 0 1 1.5 2.815 16.059 16.059 0 0 1 .384 3.8 13.9 13.9 0 0 1-.415 3.562 6.379 6.379 0 0 1-1.345 2.571 6.163 6.163 0 0 1-2.357 1.65c-2.4 1-6.387.773-8.971-.05a7.978 7.978 0 0 1-3.376-2.074 9.42 9.42 0 0 1-2.074-3.936 24.124 24.124 0 0 1-.748-6.445v-1.587h-21.53v1.594a31.4 31.4 0 0 0 2.859 13.831 28.623 28.623 0 0 0 7.532 9.692zm121.443 6.272h21.513V105.66h-26.668L146.9 165.641l-15.8-59.981h-26.68v92.659h21.46v-25.877l-1.087-23.99 14.641 49.867h14.823l14.636-49.879-1.082 24.071zm24.76 0h22.721l4.841-18.31h22.379l4.841 18.31h22.915l-29.427-92.659h-19.049zm32.364-36.558l6.35-24 6.349 24zM379.6 105.66v36.2h-23.7v-36.2h-21.461v92.659H355.9v-38.278h23.7v38.277h21.387V105.66zM96.878 261.984a18.471 18.471 0 0 0-4.294-5.083 15.665 15.665 0 0 0-3.1-1.992 16.827 16.827 0 0 0 2.39-1.894 20.121 20.121 0 0 0 3.847-4.833 20.81 20.81 0 0 0 2.2-5.693 26.83 26.83 0 0 0 .7-6.265 29.894 29.894 0 0 0-2.061-11.509 21.43 21.43 0 0 0-6.143-8.259 26.013 26.013 0 0 0-9.676-4.807 46.706 46.706 0 0 0-12.572-1.544H38.343v92.659h31.81c9.506 0 16.923-2.379 22.041-7.062 5.129-4.721 7.733-11.733 7.733-20.826a31.185 31.185 0 0 0-.717-6.7 22.556 22.556 0 0 0-2.332-6.192zm-36.758 1.88h10.661c2.835 0 4.752.847 5.866 2.591 1.245 1.918 1.88 4.672 1.88 8.172a16.094 16.094 0 0 1-.5 4.2 8.667 8.667 0 0 1-1.49 3.089 6.325 6.325 0 0 1-2.471 1.942 9.446 9.446 0 0 1-3.917.722h-10.03zm14.792-18.621c-1.459 1.544-3.722 2.291-6.922 2.291h-7.871v-19.182h8.047c3.237 0 5.557.723 6.9 2.13 1.365 1.445 2.056 4.011 2.056 7.636-.004 3.164-.745 5.568-2.21 7.126zm50.968-35.138h-21.461v92.659h53.461v-18.186h-32zm93.546 9.217a29.444 29.444 0 0 0-10.888-7.834 38.39 38.39 0 0 0-27.761 0 29.065 29.065 0 0 0-10.895 7.834 36.148 36.148 0 0 0-6.954 12.817 57.547 57.547 0 0 0-2.426 17.475v14.872a53.675 53.675 0 0 0 2.471 17.028 34.272 34.272 0 0 0 7.035 12.431 29.367 29.367 0 0 0 10.913 7.536 39.438 39.438 0 0 0 27.724 0 28.707 28.707 0 0 0 10.832-7.548 34.687 34.687 0 0 0 6.928-12.418 54.489 54.489 0 0 0 2.446-17.028v-14.872a57.556 57.556 0 0 0-2.44-17.475 35.775 35.775 0 0 0-6.985-12.818zm-30.207 9.043a13.056 13.056 0 0 1 10.864 0 9.486 9.486 0 0 1 3.823 3.649 21.211 21.211 0 0 1 2.521 6.889 52.942 52.942 0 0 1 .9 10.588v15a50.421 50.421 0 0 1-.861 10.09 19.163 19.163 0 0 1-2.477 6.564 9.673 9.673 0 0 1-3.784 3.476 13.907 13.907 0 0 1-10.939 0 9.584 9.584 0 0 1-3.879-3.488 19.483 19.483 0 0 1-2.54-6.551 49.67 49.67 0 0 1-.892-10.09v-15a53.823 53.823 0 0 1 .9-10.588 21.758 21.758 0 0 1 2.521-6.889 9.574 9.574 0 0 1 3.843-3.65zm67.655 9.966a19.81 19.81 0 0 1 2.432-6.714 9.061 9.061 0 0 1 3.741-3.45 16.037 16.037 0 0 1 10.31-.461 7.264 7.264 0 0 1 3.036 1.98 10.092 10.092 0 0 1 2.007 3.914 35.59 35.59 0 0 1 1.151 6.751l.133 1.457h20.946l-.131-1.718a50.805 50.805 0 0 0-2.628-13.217 26.674 26.674 0 0 0-6.067-9.914 24.946 24.946 0 0 0-9.94-6.092 43.381 43.381 0 0 0-13.8-1.992 37.7 37.7 0 0 0-13.9 2.454A27.107 27.107 0 0 0 243.5 218.9a35.06 35.06 0 0 0-6.676 12.593 59.674 59.674 0 0 0-2.3 17.451v15.109a57.231 57.231 0 0 0 2.4 17.475 33.467 33.467 0 0 0 7.009 12.543 28.738 28.738 0 0 0 11.026 7.473 39.414 39.414 0 0 0 14.23 2.456 48.921 48.921 0 0 0 11.675-1.257 45.269 45.269 0 0 0 8.845-3.052 31.323 31.323 0 0 0 6.362-3.923 39.458 39.458 0 0 0 4.01-3.649l.428-.462v-39.152h-34.287v16.827H279v13.975l-.672.473a9.505 9.505 0 0 1-1.685.909 13.925 13.925 0 0 1-2.621.786 17.913 17.913 0 0 1-3.771.335 16.7 16.7 0 0 1-6.376-1.121 9.84 9.84 0 0 1-4.244-3.513 18.473 18.473 0 0 1-2.672-6.639 50.731 50.731 0 0 1-.918-10.487v-15.232a56.479 56.479 0 0 1 .833-10.487zm20.738-46.284a31.306 31.306 0 0 0 10.548 5.673 39.938 39.938 0 0 0 11.926 1.832 39.18 39.18 0 0 0 12.12-1.776 26.475 26.475 0 0 0 9.336-5.175 22.738 22.738 0 0 0 6-8.346 28.22 28.22 0 0 0 2.063-11.124 31.548 31.548 0 0 0-1.622-10.45 24.758 24.758 0 0 0-5.055-8.44 34.7 34.7 0 0 0-8.248-6.57 67.16 67.16 0 0 0-11.228-5.144c-2-.841-3.771-1.682-5.413-2.573a21.773 21.773 0 0 1-3.991-2.69 10.1 10.1 0 0 1-2.357-2.878 6.489 6.489 0 0 1-.787-3.232 10.922 10.922 0 0 1 .554-3.569 7.341 7.341 0 0 1 1.527-2.709 6.9 6.9 0 0 1 2.578-1.776 10.9 10.9 0 0 1 7.922.125 7.176 7.176 0 0 1 2.665 2.136 10.18 10.18 0 0 1 1.6 3.493 20.769 20.769 0 0 1 .534 4.814v1.594h21.4v-1.594a31.729 31.729 0 0 0-2.1-11.727 26.566 26.566 0 0 0-6.042-9.268 27.692 27.692 0 0 0-9.473-6.071c-7.268-2.847-17-2.84-24.43-.274a29.5 29.5 0 0 0-9.574 5.369 24.094 24.094 0 0 0-6.35 8.451 26.045 26.045 0 0 0-2.257 10.88 25.269 25.269 0 0 0 2.242 10.922 27.608 27.608 0 0 0 5.922 8.2 37.641 37.641 0 0 0 8.481 6.079 84.317 84.317 0 0 0 9.857 4.428 50.071 50.071 0 0 1 6.627 3.144 14.211 14.211 0 0 1 3.57 2.828 6.52 6.52 0 0 1 1.5 2.815 16.053 16.053 0 0 1 .384 3.8 13.906 13.906 0 0 1-.415 3.562 6.38 6.38 0 0 1-1.346 2.571 6.162 6.162 0 0 1-2.357 1.65c-2.4 1-6.387.773-8.971-.05a7.98 7.98 0 0 1-3.376-2.074 9.421 9.421 0 0 1-2.074-3.936 24.124 24.124 0 0 1-.748-6.445v-1.592h-21.533v1.594a31.4 31.4 0 0 0 2.86 13.831 28.622 28.622 0 0 0 7.531 9.692z"/></g></svg>