<svg id="レイヤー_1" xmlns="http://www.w3.org/2000/svg" viewBox="0 0 6 58"><pattern id="diagonal-texture" patternUnits="userSpaceOnUse" width="6" height="6"><style>.diagonal-1{fill:#242424}</style><path d="M0 0h6v6H0z"/><path class="diagonal-1" d="M5 0h1v1H5zM4 1h1v1H4zM3 2h1v1H3zM2 3h1v1H2zM1 4h1v1H1zM0 5h1v1H0zM4.5.5H5V1h-.5zM5 1h.5v.5H5zM4 2h.5v.5H4zm-.5-.5H4V2h-.5zm-1 1H3V3h-.5zM3 3h.5v.5H3zM2 4h.5v.5H2zM1 5h.5v.5H1zM0 0h.5v.5H0z"/>/&gt;<path class="diagonal-1" d="M5.5 5.5H6V6h-.5zm-4-2H2V4h-.5zm-1 1H1V5H.5z"/></pattern><g fill="url(#diagonal-texture)"><path d="M294.5-1.5c2.2-1 4.2-2.3 6.1-3.8 1.4-1.1 2.7-2.3 3.9-3.6v-37.8H273v14h13V-16c-.4.3-.8.6-1.4.9-.6.4-1.3.8-2 1.1-1 .4-1.9.7-3 .9-1.4.3-2.8.4-4.2.4-2.4.1-4.9-.4-7.1-1.3-2-.9-3.8-2.3-5-4.2-1.5-2.2-2.5-4.8-3-7.4-.7-3.6-1-7.4-1-11.1v-15.6c-.1-3.7.2-7.4.9-11 .4-2.6 1.3-5.1 2.7-7.4 1.1-1.8 2.6-3.2 4.5-4.2 2-.9 4.2-1.3 6.4-1.3 1.8 0 3.6.2 5.3.8 1.5.5 2.8 1.3 3.8 2.5 1.1 1.3 1.9 2.9 2.4 4.6.6 2.4 1.1 4.8 1.2 7.2h18c-.3-4.5-1.1-8.9-2.6-13.1-1.2-3.6-3.2-6.8-5.8-9.6-2.6-2.7-5.9-4.7-9.4-5.8-4.4-1.4-8.9-2-13.5-2-4.6-.1-9.2.7-13.5 2.4-4 1.6-7.5 4.1-10.2 7.3-3 3.6-5.2 7.8-6.5 12.3-1.6 5.7-2.4 11.5-2.3 17.4v15.5c-.1 5.9.7 11.8 2.4 17.4 1.3 4.5 3.7 8.7 6.8 12.2 2.7 3 6 5.3 9.8 6.9h-43.2c3.7-1.6 7.1-4 9.7-7 3-3.5 5.3-7.7 6.7-12.1 1.7-5.5 2.5-11.2 2.4-16.9v-15.2c.1-5.9-.7-11.8-2.4-17.4-1.4-4.6-3.7-8.9-6.8-12.6-2.8-3.3-6.4-5.9-10.4-7.6-8.6-3.4-18.3-3.4-26.9 0-4 1.7-7.6 4.3-10.4 7.6-3.1 3.7-5.4 8-6.7 12.6-1.7 5.6-2.5 11.5-2.4 17.4v15.2c-.1 5.7.7 11.5 2.4 16.9 1.4 4.5 3.7 8.6 6.8 12.1 2.7 3 6.1 5.4 9.8 7h-17.9v-13.9h-32.5v-76.3h-18.5V0H94.8c3.6-1 7-2.8 9.8-5.3 4.9-4.5 7.3-11.2 7.3-20.1 0-2.2-.2-4.4-.7-6.5-.4-2.1-1.2-4-2.2-5.9-1-1.8-2.4-3.4-4-4.8-1.8-1.4-3.8-2.5-6-3.1 1.9-.8 3.7-2 5.2-3.4 1.4-1.3 2.6-2.9 3.6-4.6 1-1.7 1.7-3.5 2.1-5.4.4-2 .7-4 .7-6 .1-3.8-.6-7.6-2-11.1-1.2-3-3.2-5.7-5.8-7.8-2.7-2.2-5.9-3.8-9.2-4.6-4-1.1-8.2-1.6-12.3-1.5H53V0H0v58h364.1L397 0H290.8c1.3-.4 2.5-.9 3.7-1.5zm-223-73.2h9.8c3.8 0 6.5.9 8.2 2.7 1.7 1.8 2.5 4.8 2.5 8.9 0 3.7-.9 6.5-2.7 8.4-1.8 1.9-4.5 2.9-8.2 2.9h-9.6v-22.9zm0 36.3H84c3.4 0 5.9 1.1 7.3 3.4s2.2 5.4 2.2 9.3c0 1.6-.2 3.2-.6 4.7-.3 1.4-1 2.6-1.8 3.7s-1.9 1.9-3.2 2.5c-1.5.6-3 .9-4.6.9H71.5v-24.5zm141.6 20.2c-1.1 1.8-2.6 3.2-4.5 4.2-1.9.9-4.1 1.4-6.2 1.3-2.2 0-4.3-.4-6.3-1.3-1.9-.9-3.5-2.4-4.6-4.2-1.4-2.2-2.3-4.7-2.8-7.3-.7-3.5-1-7.1-.9-10.7v-15.4c-.1-3.7.3-7.5.9-11.2.5-2.7 1.4-5.2 2.8-7.6 1.1-1.8 2.7-3.3 4.5-4.3 2-1 4.1-1.4 6.3-1.4s4.3.4 6.2 1.4c1.9 1 3.5 2.5 4.5 4.3 1.4 2.3 2.3 4.9 2.8 7.6.7 3.7 1 7.4.9 11.2v15.4c.1 3.6-.3 7.2-.9 10.7-.4 2.6-1.3 5.1-2.7 7.3z"/><path d="M361.6 0H397l-32.9 58h-36.2l33.7-58z" fill="#666"/></g></svg>